<svg xmlns="http://www.w3.org/2000/svg" version="1.2" viewBox="70.41 17.58 26.02 27.8"> 	<path fill-rule="evenodd" clip-rule="evenodd" d="M83.424 17.5879C90.6051 17.5879 96.43 23.8186 96.43 31.4848C96.43 39.151 90.6 45.387 83.424 45.387C76.2479 45.387 70.418 39.1562 70.418 31.4848C70.418 23.8134 76.2479 17.5879 83.424 17.5879Z" fill="#FF6FE5"></path> 	<path fill-rule="evenodd" clip-rule="evenodd" d="M77.7026 43.3391C75.5569 41.5708 74.1095 39.3292 73.5124 37.4568C72.7026 34.9083 72.6166 32.5679 73.0114 30.5291C73.5225 27.8871 74.8231 25.7287 76.4678 24.2308C77.6925 23.1178 79.0386 22.4053 80.3696 22.0152C81.9992 21.5367 83.5983 21.5211 84.8989 21.7968C87.1003 22.2648 88.9171 23.383 90.1317 24.8809C91.5183 26.5972 92.1864 28.7972 91.7663 31.2365C91.4374 33.1348 90.491 34.5859 89.2967 35.5377C87.7886 36.7391 85.8959 37.15 84.2664 36.7443C83.2238 36.4842 82.5457 35.9849 82.0903 35.4752C80.9314 34.175 81.068 32.6095 81.068 32.6095C81.1439 31.2781 82.2623 30.2639 83.5579 30.3471C84.5548 30.4095 85.3645 31.1013 85.653 32.0218C85.8908 31.9906 86.1338 31.8554 86.3463 31.6838C86.6904 31.4029 86.9283 30.9608 87.0143 30.4095C87.156 29.5306 86.908 28.7348 86.402 28.1211C85.8301 27.4346 84.9546 26.9873 83.9324 26.7845C83.3099 26.6596 82.5558 26.7012 81.7816 26.9405C81.1186 27.1485 80.4455 27.5178 79.8382 28.0899C78.9627 28.9065 78.2998 30.0923 78.0417 31.5225C77.814 32.776 77.9253 34.2062 78.4415 35.7613C78.8008 36.8379 79.7117 38.0809 80.9668 39.0795C82.0194 39.9221 83.3402 40.5774 84.8534 40.7906C87.1307 41.1131 89.3777 40.6658 91.2501 39.506C93.0315 38.4034 94.4586 36.6403 95.2835 34.3102C96.3969 31.1793 95.9768 28.0379 95.0558 25.2866C92.9202 20.7254 88.5123 17.584 83.4162 17.584C76.235 17.584 70.4102 23.8147 70.4102 31.4809C70.4102 37.9405 74.5447 43.3755 80.1318 44.9306C79.2461 44.4729 78.4263 43.932 77.6925 43.3287L77.7026 43.3391Z" fill="#E449B3"></path> 	<path fill-rule="evenodd" clip-rule="evenodd" d="M75.2002 23.5213C76.2427 22.4655 77.6141 22.2054 78.2669 22.944C78.9198 23.6773 78.606 25.1336 77.5635 26.1842C76.521 27.24 75.1496 27.5 74.4967 26.7615C73.8439 26.0281 74.1577 24.5719 75.2002 23.5213Z" fill="white"></path> </svg>